<svg xmlns="http://www.w3.org/2000/svg" data-name="Layer 2" viewBox="0 0 64 60" x="0px" y="0px" fill="#333333"><path d="M16.29,41H13.71a2,2,0,0,1-2-2h-2a4,4,0,0,0,4,4h2.58a4,4,0,0,0,0-8H13.71a2,2,0,0,1,0-4h2.58a2,2,0,0,1,2,2h2a4,4,0,0,0-4-4H13.71a4,4,0,0,0,0,8h2.58a2,2,0,0,1,0,4Z"/><path d="M27,43h1a5,5,0,0,0,5-5V34a5,5,0,0,0-5-5H27a5,5,0,0,0-5,5v4A5,5,0,0,0,27,43Zm-3-9a3,3,0,0,1,3-3h1a3,3,0,0,1,3,3v4a3,3,0,0,1-3,3H27a3,3,0,0,1-3-3Z"/><path d="M36,43h6V41H37V29H35V42A1,1,0,0,0,36,43Z"/><path d="M45,43h5a4,4,0,0,0,4-4V33a4,4,0,0,0-4-4H45a1,1,0,0,0-1,1V42A1,1,0,0,0,45,43Zm1-12h4a2,2,0,0,1,2,2v6a2,2,0,0,1-2,2H46Z"/><circle cx="32" cy="9" r="1.5"/><path d="M60,25a1,1,0,0,0,1-1V20a1,1,0,0,0-1-1H52.35L37.76,7.33a6,6,0,0,0-11.52,0L11.65,19H4a1,1,0,0,0-1,1v4a1,1,0,0,0,1,1H5V47H4a1,1,0,0,0-1,1v4a1,1,0,0,0,1,1H60a1,1,0,0,0,1-1V48a1,1,0,0,0-1-1H59V25ZM32,5a4,4,0,1,1-4,4A4,4,0,0,1,32,5Zm-5.91,5a6,6,0,0,0,11.82,0l11.24,9H14.85ZM5,21H59v2H5ZM59,51H5V49H59Zm-2-4H7V25H57Z"/></svg>