<svg width="402.539" height="66.114" viewBox="0 0 402.539 66.114" xmlns="http://www.w3.org/2000/svg"><g id="svgGroup" stroke-linecap="round" fill-rule="evenodd" font-size="9pt" stroke="#000" stroke-width="0.25mm" fill="#000" style="stroke:#000;stroke-width:0.25mm;fill:#000"><path d="M 41.992 44.434 L 41.797 44.238 A 6.404 6.404 0 0 0 41.516 44.135 Q 41.193 44.023 40.717 43.885 A 33.905 33.905 0 0 0 40.234 43.75 A 45.643 45.643 0 0 1 39.863 43.647 Q 39.149 43.446 38.977 43.365 A 0.515 0.515 0 0 1 38.965 43.359 A 1202.936 1202.936 0 0 1 32.974 42.648 Q 25.649 41.759 20.373 41.012 A 351.832 351.832 0 0 1 18.701 40.772 A 154.315 154.315 0 0 1 15.088 40.201 Q 11.191 39.535 8.453 38.821 A 39.187 39.187 0 0 1 6.885 38.379 A 25.264 25.264 0 0 1 4.984 37.72 Q 3.137 36.989 2.085 36.146 A 4.869 4.869 0 0 1 1.367 35.449 A 5.899 5.899 0 0 1 0.121 32.68 A 8.148 8.148 0 0 1 0 31.25 Q 0 30.274 0.391 29.102 A 23.339 23.339 0 0 1 1.318 26.758 A 23.552 23.552 0 0 1 2.009 25.369 A 19.548 19.548 0 0 1 2.441 24.609 A 18.326 18.326 0 0 1 2.85 23.958 Q 3.049 23.657 3.234 23.406 A 8.07 8.07 0 0 1 3.516 23.047 A 14.114 14.114 0 0 1 5.682 20.892 A 18.533 18.533 0 0 1 7.617 19.531 A 35.626 35.626 0 0 1 12.903 16.871 A 39.077 39.077 0 0 1 13.086 16.797 A 66.83 66.83 0 0 1 18.994 14.746 A 474.059 474.059 0 0 1 21.838 13.916 A 349.918 349.918 0 0 1 24.414 13.184 A 17.648 17.648 0 0 0 28.803 12.283 A 20.582 20.582 0 0 0 29.932 11.865 A 24.432 24.432 0 0 1 34.079 10.593 A 21.728 21.728 0 0 1 35.449 10.352 A 2.749 2.749 0 0 1 37.526 11.234 A 3.46 3.46 0 0 1 37.695 11.426 A 4.269 4.269 0 0 1 38.264 12.315 A 3.167 3.167 0 0 1 38.574 13.672 A 6.927 6.927 0 0 1 38.518 14.585 Q 38.458 15.035 38.334 15.401 A 2.642 2.642 0 0 1 37.94 16.162 A 4.023 4.023 0 0 1 36.406 17.375 A 4.771 4.771 0 0 1 36.279 17.432 A 10.269 10.269 0 0 1 34.921 17.9 A 12.849 12.849 0 0 1 33.984 18.115 A 70.501 70.501 0 0 0 31.445 18.652 L 29.297 19.19 A 84.954 84.954 0 0 0 26.563 19.922 Q 25.388 20.258 24.429 20.521 A 153.357 153.357 0 0 1 24.121 20.606 A 45.643 45.643 0 0 0 23.749 20.709 Q 23.036 20.91 22.863 20.991 A 0.515 0.515 0 0 0 22.852 20.996 Q 19.824 22.266 17.139 23.389 A 47.191 47.191 0 0 0 14.771 24.452 Q 13.672 24.985 12.72 25.528 A 28.458 28.458 0 0 0 12.451 25.684 Q 10.449 26.856 9.326 28.174 A 4.555 4.555 0 0 0 8.606 29.305 Q 8.293 30.025 8.293 30.806 A 3.982 3.982 0 0 0 8.301 31.055 L 8.301 31.152 A 3.192 3.192 0 0 0 9.15 31.94 Q 10.019 32.516 11.497 32.922 A 17.527 17.527 0 0 0 12.695 33.203 A 67.601 67.601 0 0 0 15.431 33.688 Q 16.944 33.927 18.645 34.136 A 123.308 123.308 0 0 0 20.752 34.375 A 919.312 919.312 0 0 0 25.513 34.863 A 1066.546 1066.546 0 0 0 30.518 35.352 A 82.54 82.54 0 0 1 36.023 36.055 A 65.284 65.284 0 0 1 39.941 36.817 A 32.766 32.766 0 0 1 43.191 37.723 Q 44.771 38.258 46.084 38.918 A 17.391 17.391 0 0 1 47.07 39.453 Q 49.902 41.113 50 43.945 A 6.547 6.547 0 0 1 49.929 44.873 Q 49.863 45.333 49.736 45.848 A 13.556 13.556 0 0 1 49.561 46.484 A 7.339 7.339 0 0 1 49.201 47.449 Q 48.975 47.937 48.696 48.316 A 3.676 3.676 0 0 1 48.34 48.731 A 55.782 55.782 0 0 1 45.667 51.514 A 74.993 74.993 0 0 1 42.529 54.395 Q 39.16 57.324 35.254 59.815 A 51.326 51.326 0 0 1 27.197 64.014 A 28.226 28.226 0 0 1 22.067 65.597 A 23.985 23.985 0 0 1 19.043 66.016 A 3.601 3.601 0 0 1 17.026 65.39 A 4.844 4.844 0 0 1 16.504 64.99 A 3.566 3.566 0 0 1 15.708 64.019 A 3.117 3.117 0 0 1 15.332 62.5 A 13.145 13.145 0 0 1 16.845 60.748 A 9.704 9.704 0 0 1 18.799 59.277 Q 20.703 58.203 22.705 57.52 Q 24.707 56.836 26.709 56.201 A 12.25 12.25 0 0 0 29.192 55.084 A 15.517 15.517 0 0 0 30.664 54.102 Q 31.487 53.653 32.824 52.861 A 174.545 174.545 0 0 0 33.691 52.344 Q 35.645 51.172 37.549 49.756 A 39.013 39.013 0 0 0 39.331 48.352 A 29.465 29.465 0 0 0 40.869 46.973 A 8.625 8.625 0 0 0 41.472 46.333 Q 42.047 45.652 42.215 45.082 A 1.596 1.596 0 0 0 42.285 44.629 Q 42.285 44.552 42.224 44.536 A 0.144 0.144 0 0 0 42.188 44.531 A 0.587 0.587 0 0 1 42.122 44.528 Q 41.992 44.513 41.992 44.434 Z M 211.328 36.719 L 202.832 62.891 A 7.357 7.357 0 0 1 202.542 63.594 Q 202.186 64.336 201.747 64.723 A 2.036 2.036 0 0 1 201.66 64.795 A 2.025 2.025 0 0 1 201.086 65.101 Q 200.533 65.299 199.704 65.327 A 8.383 8.383 0 0 1 199.414 65.332 A 5.672 5.672 0 0 1 198.426 65.241 A 7.197 7.197 0 0 1 197.754 65.088 Q 196.875 64.844 196.094 64.356 A 5.125 5.125 0 0 1 194.883 63.315 A 4.835 4.835 0 0 1 194.775 63.184 Q 194.238 62.5 194.141 61.621 Q 194.434 60.449 194.678 57.324 Q 194.922 54.199 195.02 50.098 Q 195.117 45.996 195.166 41.455 Q 195.212 37.198 195.172 33.456 A 302.392 302.392 0 0 0 195.166 32.959 A 430.591 430.591 0 0 0 195.123 30.144 Q 195.102 29.034 195.076 28.029 A 230.909 230.909 0 0 0 195.02 26.123 A 193.015 193.015 0 0 0 194.977 24.959 Q 194.901 23.05 194.824 22.363 A 42.103 42.103 0 0 1 194.873 20.361 A 9.243 9.243 0 0 1 195.01 19.137 A 7.754 7.754 0 0 1 195.166 18.457 A 3.006 3.006 0 0 1 195.543 17.609 A 2.619 2.619 0 0 1 196.045 17.041 Q 196.68 16.504 198.047 16.504 Q 199.902 16.504 201.514 18.067 A 6.401 6.401 0 0 1 202.415 19.138 Q 202.936 19.932 203.075 20.773 A 3.767 3.767 0 0 1 203.125 21.387 Q 203.125 23.926 202.881 26.416 Q 202.637 28.906 202.637 31.445 L 202.637 34.082 A 7.58 7.58 0 0 0 202.691 34.952 Q 202.743 35.395 202.843 35.898 A 17.164 17.164 0 0 0 203.027 36.719 A 50.359 50.359 0 0 0 203.198 36.255 Q 203.46 35.534 203.898 34.286 A 431.436 431.436 0 0 0 204.004 33.984 Q 204.688 32.031 205.518 29.883 A 198.711 198.711 0 0 0 206.311 27.796 A 163.637 163.637 0 0 0 207.031 25.83 Q 207.661 24.077 207.959 23.275 A 57.317 57.317 0 0 1 208.008 23.145 A 13.37 13.37 0 0 1 209.531 20.125 A 15.592 15.592 0 0 1 210.059 19.385 A 5.009 5.009 0 0 1 211.846 17.876 A 5.097 5.097 0 0 1 213.672 17.383 A 4.367 4.367 0 0 1 213.962 17.373 A 4.013 4.013 0 0 1 216.357 18.164 Q 217.578 19.043 218.457 20.459 A 17.585 17.585 0 0 1 219.922 23.389 Q 220.508 24.902 220.801 25.977 L 226.074 50.293 L 230.176 61.426 A 0.205 0.205 0 0 1 230.218 61.495 Q 230.274 61.632 230.274 61.963 L 230.274 62.598 A 5.238 5.238 0 0 1 229.786 64.787 A 6.065 6.065 0 0 1 229.736 64.893 A 1.945 1.945 0 0 1 229.142 65.635 Q 228.773 65.909 228.258 65.986 A 2.88 2.88 0 0 1 227.832 66.016 A 6.57 6.57 0 0 1 225.773 65.671 A 8.809 8.809 0 0 1 224.414 65.088 Q 222.656 64.16 221.973 62.695 Q 220.606 60.742 219.678 57.276 A 147.032 147.032 0 0 1 218.341 51.856 A 169.328 169.328 0 0 1 217.92 49.951 A 281.475 281.475 0 0 1 216.492 42.89 A 257.914 257.914 0 0 1 216.406 42.432 A 72.721 72.721 0 0 0 215.974 40.286 Q 215.494 38.083 214.99 36.572 Q 214.258 34.375 213.379 34.082 A 0.51 0.51 0 0 0 213.217 34.056 Q 212.538 34.056 211.695 35.866 A 16.842 16.842 0 0 0 211.328 36.719 Z M 284.18 20.996 L 284.18 24.219 A 403.314 403.314 0 0 1 283.984 36.817 A 406.492 406.492 0 0 0 283.789 49.512 L 283.789 53.613 A 4.447 4.447 0 0 0 283.803 53.952 Q 283.835 54.361 283.936 54.932 A 11.617 11.617 0 0 0 283.98 55.171 Q 284.073 55.64 284.144 55.737 A 0.049 0.049 0 0 0 284.18 55.762 L 284.961 55.762 L 308.106 46.582 A 4.91 4.91 0 0 1 308.518 46.256 Q 308.966 45.942 309.34 45.868 A 1.209 1.209 0 0 1 309.473 45.85 A 12.718 12.718 0 0 1 309.94 45.82 Q 310.352 45.801 310.84 45.801 A 12.12 12.12 0 0 1 311.102 45.804 Q 311.464 45.812 311.948 45.84 A 37.872 37.872 0 0 1 312.109 45.85 Q 312.891 45.899 313.623 46.143 A 4.217 4.217 0 0 1 314.462 46.524 A 3.617 3.617 0 0 1 314.893 46.826 A 1.405 1.405 0 0 1 315.366 47.592 Q 315.426 47.827 315.43 48.107 A 2.832 2.832 0 0 1 315.43 48.145 A 4.015 4.015 0 0 1 314.44 50.767 Q 313.981 51.32 313.31 51.822 A 8.854 8.854 0 0 1 312.988 52.051 A 83.799 83.799 0 0 1 306.543 55.127 A 46.991 46.991 0 0 1 299.805 57.422 L 299.316 57.813 Q 294.629 59.082 290.576 61.524 Q 286.524 63.965 282.129 66.016 L 281.25 66.016 A 6.239 6.239 0 0 1 279.701 65.835 A 4.048 4.048 0 0 1 277.344 64.258 A 9.229 9.229 0 0 1 275.915 61.194 A 11.333 11.333 0 0 1 275.684 60.108 A 24.501 24.501 0 0 1 275.371 56.154 A 27.243 27.243 0 0 1 275.391 55.127 Q 275.478 52.812 275.487 51.24 A 61.566 61.566 0 0 0 275.488 50.879 Q 275.488 43.359 275.732 35.938 Q 275.977 28.516 275.977 20.899 A 88.275 88.275 0 0 0 275.537 12.109 A 88.275 88.275 0 0 1 275.098 3.32 Q 275.098 1.953 275.928 0.977 A 2.701 2.701 0 0 1 277.904 0.007 A 3.651 3.651 0 0 1 278.125 0 A 8.985 8.985 0 0 1 279.413 0.086 Q 280.071 0.182 280.602 0.383 A 3.611 3.611 0 0 1 281.641 0.977 Q 282.813 1.953 283.301 3.418 A 9.287 9.287 0 0 1 283.696 5.19 A 12.315 12.315 0 0 1 283.789 6.738 L 283.789 10.352 Q 283.789 10.717 283.832 12.109 A 372.976 372.976 0 0 0 283.838 12.305 A 133.19 133.19 0 0 0 283.899 13.928 A 165.8 165.8 0 0 0 283.984 15.674 A 165.8 165.8 0 0 1 284.07 17.42 A 133.19 133.19 0 0 1 284.131 19.043 Q 284.177 20.505 284.18 20.941 A 8.225 8.225 0 0 1 284.18 20.996 Z M 329.199 46.192 L 328.809 46.973 A 1.457 1.457 0 0 0 328.726 47.188 Q 328.606 47.574 328.506 48.351 A 20.262 20.262 0 0 0 328.467 48.682 Q 328.32 50 328.125 51.66 A 107.165 107.165 0 0 0 327.783 55.029 A 55.486 55.486 0 0 0 327.719 55.844 Q 327.637 57.007 327.637 57.813 Q 327.637 57.91 327.734 58.008 A 1.717 1.717 0 0 0 327.814 58.083 Q 327.951 58.203 328.027 58.203 A 1.827 1.827 0 0 0 329.011 57.909 A 2.741 2.741 0 0 0 329.492 57.52 A 4.63 4.63 0 0 1 330.235 56.911 A 3.698 3.698 0 0 1 330.957 56.543 L 346.582 42.09 L 350.586 35.938 A 2.978 2.978 0 0 1 350.958 35.519 Q 351.369 35.127 352.049 34.694 A 13.739 13.739 0 0 1 352.49 34.424 A 6.59 6.59 0 0 1 354.076 33.743 A 5.57 5.57 0 0 1 355.371 33.545 A 4.164 4.164 0 0 1 355.51 33.543 A 3.626 3.626 0 0 1 357.959 34.473 A 2.592 2.592 0 0 1 358.61 35.389 Q 358.993 36.245 359.065 37.613 A 12.634 12.634 0 0 1 359.082 38.281 Q 358.921 39.73 358.727 40.648 A 10.337 10.337 0 0 1 358.643 41.016 A 4.863 4.863 0 0 1 357.813 42.774 A 6.497 6.497 0 0 1 357.256 43.416 Q 356.79 43.892 356.152 44.385 A 76.482 76.482 0 0 0 355.566 44.843 Q 354.912 45.359 354.05 46.057 A 273.407 273.407 0 0 0 353.223 46.729 A 85.042 85.042 0 0 0 352.24 47.543 Q 350.787 48.766 348.903 50.443 A 245.417 245.417 0 0 0 348.633 50.684 A 103.348 103.348 0 0 0 347.192 51.996 Q 345.073 53.962 342.378 56.646 A 287.222 287.222 0 0 0 341.992 57.031 A 2239.013 2239.013 0 0 0 339.183 59.67 A 2446.446 2446.446 0 0 0 338.77 60.059 Q 337.109 61.621 335.303 62.842 A 19.918 19.918 0 0 1 331.543 64.844 A 10.942 10.942 0 0 1 327.441 65.625 Q 323.242 65.625 321.289 62.793 A 11.084 11.084 0 0 1 319.353 56.938 A 13.652 13.652 0 0 1 319.336 56.25 A 67.551 67.551 0 0 1 319.357 54.53 Q 319.391 53.187 319.482 52.149 Q 319.626 50.525 320.189 47.968 A 66.382 66.382 0 0 1 320.215 47.852 Q 319.476 47.18 318.876 46.624 A 121.074 121.074 0 0 1 318.359 46.143 A 2.417 2.417 0 0 1 317.633 44.777 A 3.513 3.513 0 0 1 317.578 44.141 A 3.975 3.975 0 0 1 317.611 43.611 Q 317.689 43.03 317.957 42.724 A 0.961 0.961 0 0 1 318.115 42.578 A 3.04 3.04 0 0 1 319.01 42.136 A 3.734 3.734 0 0 1 319.385 42.041 A 18.011 18.011 0 0 0 320.801 41.699 A 1.702 1.702 0 0 0 321.308 41.465 A 1.433 1.433 0 0 0 321.777 40.918 Q 321.938 40.437 322.328 39.299 A 795.392 795.392 0 0 1 322.51 38.77 Q 323.047 37.207 323.633 35.498 A 349.63 349.63 0 0 1 324.207 33.838 A 293.118 293.118 0 0 1 324.756 32.276 A 343.817 343.817 0 0 0 324.996 31.597 Q 325.26 30.849 325.408 30.413 A 36.659 36.659 0 0 0 325.488 30.176 A 59.884 59.884 0 0 1 326.95 26.914 A 65.097 65.097 0 0 1 327.002 26.807 A 15.778 15.778 0 0 1 328.544 24.255 A 14.312 14.312 0 0 1 328.955 23.731 Q 330.078 22.363 331.592 21.484 A 6.417 6.417 0 0 1 333.81 20.709 A 8.42 8.42 0 0 1 335.156 20.606 A 3.321 3.321 0 0 1 336.025 20.733 Q 336.916 20.975 338.037 21.68 A 19.665 19.665 0 0 1 340.817 23.805 A 22.19 22.19 0 0 1 341.309 24.268 Q 342.871 25.781 343.945 27.442 A 9.888 9.888 0 0 1 344.465 28.337 Q 344.959 29.313 345.013 30.088 A 2.689 2.689 0 0 1 345.02 30.274 Q 345.02 31.738 344.336 32.959 Q 343.652 34.18 342.627 35.205 Q 341.602 36.231 340.43 37.109 A 98.189 98.189 0 0 0 339.307 37.964 A 77.476 77.476 0 0 0 338.281 38.77 A 0.188 0.188 0 0 0 338.227 38.78 Q 338.142 38.806 337.987 38.903 A 3.712 3.712 0 0 0 337.891 38.965 Q 337.598 39.16 337.402 39.258 L 336.963 39.697 L 336.231 40.43 A 16.287 16.287 0 0 0 335.584 41.113 A 14.837 14.837 0 0 0 335.498 41.211 A 47.307 47.307 0 0 1 335.379 41.347 Q 335.147 41.61 335.065 41.693 A 1.265 1.265 0 0 1 335.059 41.699 A 4.138 4.138 0 0 1 334.879 41.866 Q 334.574 42.137 333.992 42.584 A 38.626 38.626 0 0 1 333.936 42.627 A 216.53 216.53 0 0 1 333.069 43.286 A 273.284 273.284 0 0 1 332.129 43.994 A 273.284 273.284 0 0 0 331.189 44.702 A 216.53 216.53 0 0 0 330.322 45.361 Q 329.606 45.909 329.29 46.13 A 5.33 5.33 0 0 1 329.199 46.192 Z M 372.656 46.192 L 372.266 46.973 A 1.457 1.457 0 0 0 372.183 47.188 Q 372.063 47.574 371.963 48.351 A 20.262 20.262 0 0 0 371.924 48.682 Q 371.777 50 371.582 51.66 A 107.165 107.165 0 0 0 371.24 55.029 A 55.486 55.486 0 0 0 371.176 55.844 Q 371.094 57.007 371.094 57.813 Q 371.094 57.91 371.191 58.008 A 1.717 1.717 0 0 0 371.271 58.083 Q 371.408 58.203 371.484 58.203 A 1.827 1.827 0 0 0 372.468 57.909 A 2.741 2.741 0 0 0 372.949 57.52 A 4.63 4.63 0 0 1 373.692 56.911 A 3.698 3.698 0 0 1 374.414 56.543 L 390.039 42.09 L 394.043 35.938 A 2.978 2.978 0 0 1 394.415 35.519 Q 394.826 35.127 395.506 34.694 A 13.739 13.739 0 0 1 395.947 34.424 A 6.59 6.59 0 0 1 397.533 33.743 A 5.57 5.57 0 0 1 398.828 33.545 A 4.164 4.164 0 0 1 398.967 33.543 A 3.626 3.626 0 0 1 401.416 34.473 A 2.592 2.592 0 0 1 402.067 35.389 Q 402.45 36.245 402.522 37.613 A 12.634 12.634 0 0 1 402.539 38.281 Q 402.378 39.73 402.184 40.648 A 10.337 10.337 0 0 1 402.1 41.016 A 4.863 4.863 0 0 1 401.27 42.774 A 6.497 6.497 0 0 1 400.713 43.416 Q 400.247 43.892 399.609 44.385 A 76.482 76.482 0 0 0 399.024 44.843 Q 398.369 45.359 397.507 46.057 A 273.407 273.407 0 0 0 396.68 46.729 A 85.042 85.042 0 0 0 395.697 47.543 Q 394.244 48.766 392.36 50.443 A 245.417 245.417 0 0 0 392.09 50.684 A 103.348 103.348 0 0 0 390.649 51.996 Q 388.53 53.962 385.835 56.646 A 287.222 287.222 0 0 0 385.449 57.031 A 2239.013 2239.013 0 0 0 382.64 59.67 A 2446.446 2446.446 0 0 0 382.227 60.059 Q 380.566 61.621 378.76 62.842 A 19.918 19.918 0 0 1 375 64.844 A 10.942 10.942 0 0 1 370.899 65.625 Q 366.699 65.625 364.746 62.793 A 11.084 11.084 0 0 1 362.81 56.938 A 13.652 13.652 0 0 1 362.793 56.25 A 67.551 67.551 0 0 1 362.814 54.53 Q 362.848 53.187 362.94 52.149 Q 363.083 50.525 363.646 47.968 A 66.382 66.382 0 0 1 363.672 47.852 Q 362.933 47.18 362.333 46.624 A 121.074 121.074 0 0 1 361.816 46.143 A 2.417 2.417 0 0 1 361.09 44.777 A 3.513 3.513 0 0 1 361.035 44.141 A 3.975 3.975 0 0 1 361.068 43.611 Q 361.146 43.03 361.414 42.724 A 0.961 0.961 0 0 1 361.572 42.578 A 3.04 3.04 0 0 1 362.467 42.136 A 3.734 3.734 0 0 1 362.842 42.041 A 18.011 18.011 0 0 0 364.258 41.699 A 1.702 1.702 0 0 0 364.765 41.465 A 1.433 1.433 0 0 0 365.234 40.918 Q 365.395 40.437 365.785 39.299 A 795.392 795.392 0 0 1 365.967 38.77 Q 366.504 37.207 367.09 35.498 A 349.63 349.63 0 0 1 367.664 33.838 A 293.118 293.118 0 0 1 368.213 32.276 A 343.817 343.817 0 0 0 368.453 31.597 Q 368.717 30.849 368.865 30.413 A 36.659 36.659 0 0 0 368.945 30.176 A 59.884 59.884 0 0 1 370.407 26.914 A 65.097 65.097 0 0 1 370.459 26.807 A 15.778 15.778 0 0 1 372.001 24.255 A 14.312 14.312 0 0 1 372.412 23.731 Q 373.535 22.363 375.049 21.484 A 6.417 6.417 0 0 1 377.267 20.709 A 8.42 8.42 0 0 1 378.613 20.606 A 3.321 3.321 0 0 1 379.482 20.733 Q 380.373 20.975 381.494 21.68 A 19.665 19.665 0 0 1 384.274 23.805 A 22.19 22.19 0 0 1 384.766 24.268 Q 386.328 25.781 387.402 27.442 A 9.888 9.888 0 0 1 387.922 28.337 Q 388.416 29.313 388.47 30.088 A 2.689 2.689 0 0 1 388.477 30.274 Q 388.477 31.738 387.793 32.959 Q 387.109 34.18 386.084 35.205 Q 385.059 36.231 383.887 37.109 A 98.189 98.189 0 0 0 382.764 37.964 A 77.476 77.476 0 0 0 381.738 38.77 A 0.188 0.188 0 0 0 381.684 38.78 Q 381.599 38.806 381.444 38.903 A 3.712 3.712 0 0 0 381.348 38.965 Q 381.055 39.16 380.859 39.258 L 380.42 39.697 L 379.688 40.43 A 16.287 16.287 0 0 0 379.041 41.113 A 14.837 14.837 0 0 0 378.955 41.211 A 47.307 47.307 0 0 1 378.836 41.347 Q 378.604 41.61 378.522 41.693 A 1.265 1.265 0 0 1 378.516 41.699 A 4.138 4.138 0 0 1 378.336 41.866 Q 378.031 42.137 377.449 42.584 A 38.626 38.626 0 0 1 377.393 42.627 A 216.53 216.53 0 0 1 376.526 43.286 A 273.284 273.284 0 0 1 375.586 43.994 A 273.284 273.284 0 0 0 374.646 44.702 A 216.53 216.53 0 0 0 373.779 45.361 Q 373.063 45.909 372.747 46.13 A 5.33 5.33 0 0 1 372.656 46.192 Z M 178.32 39.258 L 177.93 38.77 A 80.022 80.022 0 0 0 177.236 40.031 Q 176.63 41.156 175.928 42.529 A 4631.487 4631.487 0 0 0 174.768 44.8 A 5585.656 5585.656 0 0 0 173.535 47.217 A 76.386 76.386 0 0 1 170.752 52.197 A 49.081 49.081 0 0 1 168.822 55.139 A 41.551 41.551 0 0 1 167.627 56.738 A 23.549 23.549 0 0 1 165.768 58.845 A 18.954 18.954 0 0 1 164.258 60.205 A 9.161 9.161 0 0 1 162.701 61.229 A 6.813 6.813 0 0 1 160.645 61.914 A 9.907 9.907 0 0 1 159.869 61.882 Q 159.406 61.846 158.887 61.768 A 10.718 10.718 0 0 1 156.934 61.279 A 4.695 4.695 0 0 1 156.005 60.841 A 3.78 3.78 0 0 1 155.322 60.303 A 2.119 2.119 0 0 1 154.741 59.178 A 3.071 3.071 0 0 1 154.688 58.594 A 134.48 134.48 0 0 1 155.103 49.085 A 101.635 101.635 0 0 1 156.152 40.479 Q 157.52 32.324 160.449 26.123 A 34.072 34.072 0 0 1 164.636 19.345 A 29.157 29.157 0 0 1 167.969 15.82 A 26.094 26.094 0 0 1 176.717 10.703 A 31.493 31.493 0 0 1 179.102 9.961 Q 179.262 9.961 179.652 9.928 A 27.523 27.523 0 0 0 179.834 9.912 Q 180.299 9.87 180.508 9.864 A 2.177 2.177 0 0 1 180.566 9.863 Q 183.496 9.766 184.815 12.549 A 13.437 13.437 0 0 1 185.502 14.369 Q 186.121 16.398 186.534 19.401 A 62.606 62.606 0 0 1 186.768 21.338 Q 187.402 27.344 187.647 36.768 A 501.812 501.812 0 0 0 187.905 44.364 Q 188.184 51.135 188.672 59.375 A 13.07 13.07 0 0 1 188.857 60.14 Q 188.983 60.742 189.014 61.231 A 22.346 22.346 0 0 1 189.043 61.858 Q 189.053 62.136 189.058 62.443 A 41.46 41.46 0 0 1 189.063 63.086 Q 189.063 64.551 188.184 65.283 A 3.1 3.1 0 0 1 186.754 65.942 A 4.346 4.346 0 0 1 185.938 66.016 A 8.033 8.033 0 0 1 184.485 65.894 Q 183.712 65.751 183.115 65.442 A 3.419 3.419 0 0 1 181.934 64.453 A 7.117 7.117 0 0 1 181.019 62.785 Q 180.582 61.675 180.371 60.254 Q 180.371 60.169 180.259 59.04 A 371.304 371.304 0 0 0 180.225 58.692 A 98.273 98.273 0 0 0 180.078 57.326 Q 179.998 56.627 179.901 55.849 A 171.159 171.159 0 0 0 179.834 55.322 A 139.459 139.459 0 0 1 179.395 51.465 A 230.866 230.866 0 0 1 179.303 50.531 Q 179.183 49.283 179.112 48.37 A 74.991 74.991 0 0 1 179.102 48.242 L 179.102 47.852 A 10.59 10.59 0 0 1 178.976 47.051 Q 178.924 46.62 178.892 46.123 A 23.23 23.23 0 0 1 178.857 45.41 A 26.336 26.336 0 0 0 178.637 42.75 A 24.135 24.135 0 0 0 178.613 42.578 Q 178.418 40.918 178.32 39.258 Z M 133.008 60.938 L 133.008 64.356 A 29.478 29.478 0 0 1 132.449 64.9 Q 132.007 65.32 131.641 65.625 A 1.931 1.931 0 0 1 130.971 65.98 Q 130.69 66.067 130.351 66.098 A 4.182 4.182 0 0 1 129.981 66.113 A 4.135 4.135 0 0 1 128.019 65.601 Q 127.38 65.262 126.758 64.697 A 9.666 9.666 0 0 1 125.774 63.673 Q 125.02 62.755 124.707 61.817 Q 124.512 58.301 124.072 52.393 A 1177.565 1177.565 0 0 0 123.358 43.283 A 1311.978 1311.978 0 0 0 123.096 40.137 A 704.212 704.212 0 0 0 122.546 33.96 A 595.201 595.201 0 0 0 121.973 28.125 A 813.885 813.885 0 0 0 121.692 25.452 Q 121.415 22.859 121.19 20.94 A 214.41 214.41 0 0 0 120.996 19.336 A 2.081 2.081 0 0 1 121.094 18.676 Q 121.301 18.055 121.945 17.763 A 2.296 2.296 0 0 1 122.168 17.676 A 7.808 7.808 0 0 1 123.455 17.36 A 6.333 6.333 0 0 1 124.414 17.285 Q 125.781 17.285 127.295 18.067 A 4.512 4.512 0 0 1 128.238 18.704 A 3.161 3.161 0 0 1 129.199 20.215 Q 129.199 20.606 129.297 21.631 A 42.508 42.508 0 0 1 129.443 23.731 A 42.508 42.508 0 0 0 129.59 25.83 A 45.218 45.218 0 0 1 129.631 26.29 Q 129.688 26.95 129.688 27.246 L 129.688 28.125 L 129.688 28.662 A 1.434 1.434 0 0 0 129.712 28.919 Q 129.733 29.036 129.773 29.163 A 2.412 2.412 0 0 0 129.785 29.199 A 9.656 9.656 0 0 1 129.84 29.37 Q 129.932 29.663 130.078 30.176 Q 130.228 30.026 130.406 29.82 A 10.528 10.528 0 0 0 130.518 29.688 A 18.391 18.391 0 0 1 130.624 29.561 Q 130.756 29.405 130.831 29.327 A 1.539 1.539 0 0 1 130.859 29.297 A 57.508 57.508 0 0 1 132.398 27.185 A 42.915 42.915 0 0 1 133.887 25.342 A 47.729 47.729 0 0 1 136.914 22.119 A 110.34 110.34 0 0 1 138.562 20.557 A 140.709 140.709 0 0 1 140.381 18.897 A 644.914 644.914 0 0 1 141.898 17.539 Q 143.237 16.345 144.824 14.942 L 145.703 14.209 A 5.605 5.605 0 0 1 145.942 14.02 Q 146.099 13.903 146.24 13.818 Q 146.484 13.672 146.777 13.623 A 2.904 2.904 0 0 1 146.98 13.597 Q 147.223 13.574 147.559 13.574 A 5.386 5.386 0 0 1 149.547 13.97 A 7.61 7.61 0 0 1 150.928 14.697 Q 152.612 15.804 152.636 17.717 A 4.422 4.422 0 0 1 152.637 17.774 Q 152.637 18.457 152.149 19.19 A 7.633 7.633 0 0 1 151.061 20.477 A 8.448 8.448 0 0 1 150.977 20.557 Q 150.293 21.192 149.561 21.68 Q 149.001 22.053 148.526 22.255 A 3.76 3.76 0 0 1 148.242 22.363 A 93.836 93.836 0 0 0 145.63 24.768 A 122.044 122.044 0 0 0 142.871 27.49 Q 140.039 30.371 137.598 33.692 Q 135.156 37.012 133.594 40.625 A 18.875 18.875 0 0 0 132.192 45.537 A 16.852 16.852 0 0 0 132.031 47.852 A 43.615 43.615 0 0 0 132.52 54.395 A 43.615 43.615 0 0 1 133.008 60.938 Z M 54.59 51.367 L 54.59 51.074 L 58.203 25.977 Q 58.399 24.707 59.326 24.121 A 3.817 3.817 0 0 1 61.28 23.538 A 4.599 4.599 0 0 1 61.426 23.535 A 6.139 6.139 0 0 1 62.857 23.693 A 4.226 4.226 0 0 1 64.844 24.756 Q 66.113 25.977 66.992 27.734 L 67.09 27.734 A 5.37 5.37 0 0 0 68.266 27.61 A 4.392 4.392 0 0 0 69.19 27.295 Q 69.994 26.914 71.129 26.863 A 7.98 7.98 0 0 1 71.484 26.856 A 8.301 8.301 0 0 1 74.46 27.375 A 7.556 7.556 0 0 1 76.807 28.809 A 15.234 15.234 0 0 1 80.328 33.458 A 17.282 17.282 0 0 1 80.371 33.545 Q 81.738 36.328 82.373 39.551 A 38.628 38.628 0 0 1 82.784 42.04 Q 82.945 43.28 82.99 44.378 A 20.338 20.338 0 0 1 83.008 45.215 Q 83.008 48.145 81.494 51.758 A 30.298 30.298 0 0 1 77.49 58.594 Q 75 61.817 71.875 63.965 A 13.136 13.136 0 0 1 69.122 65.434 A 10.015 10.015 0 0 1 65.527 66.113 A 10.517 10.517 0 0 1 63.043 65.833 A 8.142 8.142 0 0 1 60.498 64.746 A 11.203 11.203 0 0 1 57.08 61.279 A 14.565 14.565 0 0 1 55.399 57.434 A 16.964 16.964 0 0 1 55.176 56.543 Q 54.59 53.906 54.59 51.367 Z M 87.598 51.367 L 87.598 51.074 L 91.211 25.977 Q 91.406 24.707 92.334 24.121 A 3.817 3.817 0 0 1 94.288 23.538 A 4.599 4.599 0 0 1 94.434 23.535 A 6.139 6.139 0 0 1 95.864 23.693 A 4.226 4.226 0 0 1 97.852 24.756 Q 99.121 25.977 100 27.734 L 100.098 27.734 A 5.37 5.37 0 0 0 101.274 27.61 A 4.392 4.392 0 0 0 102.197 27.295 Q 103.002 26.914 104.137 26.863 A 7.98 7.98 0 0 1 104.492 26.856 A 8.301 8.301 0 0 1 107.468 27.375 A 7.556 7.556 0 0 1 109.815 28.809 A 15.234 15.234 0 0 1 113.336 33.458 A 17.282 17.282 0 0 1 113.379 33.545 Q 114.746 36.328 115.381 39.551 A 38.628 38.628 0 0 1 115.792 42.04 Q 115.953 43.28 115.998 44.378 A 20.338 20.338 0 0 1 116.016 45.215 Q 116.016 48.145 114.502 51.758 A 30.298 30.298 0 0 1 110.498 58.594 Q 108.008 61.817 104.883 63.965 A 13.136 13.136 0 0 1 102.13 65.434 A 10.015 10.015 0 0 1 98.535 66.113 A 10.517 10.517 0 0 1 96.051 65.833 A 8.142 8.142 0 0 1 93.506 64.746 A 11.203 11.203 0 0 1 90.088 61.279 A 14.565 14.565 0 0 1 88.407 57.434 A 16.964 16.964 0 0 1 88.184 56.543 Q 87.598 53.906 87.598 51.367 Z M 175.781 19.434 A 22.043 22.043 0 0 0 173.25 21.647 Q 172.082 22.827 170.933 24.285 A 37.577 37.577 0 0 0 170.606 24.707 Q 168.245 27.794 167.151 30.712 A 16.879 16.879 0 0 0 166.992 31.152 A 26.092 26.092 0 0 0 166.678 32.173 Q 166.321 33.411 165.918 35.156 Q 165.332 37.695 164.893 40.186 Q 164.453 42.676 164.16 44.776 Q 163.867 46.875 163.867 47.461 A 0.136 0.136 0 0 0 163.929 47.444 Q 164.004 47.406 164.102 47.278 A 1.469 1.469 0 0 0 164.111 47.266 Q 164.232 47.105 164.32 47.01 A 1.338 1.338 0 0 1 164.356 46.973 A 38.506 38.506 0 0 0 169.519 40.881 A 30.389 30.389 0 0 0 172.9 34.326 A 47.565 47.565 0 0 0 175.388 23.949 A 57.278 57.278 0 0 0 175.781 19.434 Z M 62.793 51.367 L 62.793 51.66 Q 62.988 52.637 63.184 53.906 A 12.49 12.49 0 0 0 63.465 55.257 A 9.856 9.856 0 0 0 63.77 56.201 A 4.069 4.069 0 0 0 64.16 56.98 A 2.978 2.978 0 0 0 64.893 57.764 A 1.443 1.443 0 0 0 65.542 58.024 Q 66.042 58.1 66.709 57.905 A 5.051 5.051 0 0 0 66.992 57.813 Q 68.262 56.641 69.727 55.176 A 36.62 36.62 0 0 0 72.51 52.051 Q 73.828 50.391 74.707 48.535 Q 75.586 46.68 75.586 44.629 A 17.235 17.235 0 0 0 75.704 42.88 Q 75.733 41.042 75.336 39.385 A 12.569 12.569 0 0 0 75.098 38.526 Q 74.219 35.742 72.607 34.522 A 3.454 3.454 0 0 0 71.571 33.973 Q 70.363 33.587 68.945 34.229 A 4.793 4.793 0 0 0 67.668 35.115 Q 66.592 36.12 65.516 37.999 A 25.361 25.361 0 0 0 64.844 39.258 A 17.817 17.817 0 0 0 63.781 42.283 A 23.985 23.985 0 0 0 63.232 45.166 A 55.232 55.232 0 0 0 62.903 48.401 A 42.021 42.021 0 0 0 62.793 51.367 Z M 95.801 51.367 L 95.801 51.66 Q 95.996 52.637 96.191 53.906 A 12.49 12.49 0 0 0 96.473 55.257 A 9.856 9.856 0 0 0 96.777 56.201 A 4.069 4.069 0 0 0 97.168 56.98 A 2.978 2.978 0 0 0 97.9 57.764 A 1.443 1.443 0 0 0 98.55 58.024 Q 99.05 58.1 99.717 57.905 A 5.051 5.051 0 0 0 100 57.813 Q 101.27 56.641 102.734 55.176 A 36.62 36.62 0 0 0 105.518 52.051 Q 106.836 50.391 107.715 48.535 Q 108.594 46.68 108.594 44.629 A 17.235 17.235 0 0 0 108.712 42.88 Q 108.74 41.042 108.344 39.385 A 12.569 12.569 0 0 0 108.106 38.526 Q 107.227 35.742 105.615 34.522 A 3.454 3.454 0 0 0 104.579 33.973 Q 103.371 33.587 101.953 34.229 A 4.793 4.793 0 0 0 100.675 35.115 Q 99.6 36.12 98.524 37.999 A 25.361 25.361 0 0 0 97.852 39.258 A 17.817 17.817 0 0 0 96.789 42.283 A 23.985 23.985 0 0 0 96.24 45.166 A 55.232 55.232 0 0 0 95.911 48.401 A 42.021 42.021 0 0 0 95.801 51.367 Z M 331.152 34.863 L 337.598 30.664 Q 338.086 30.274 337.988 29.492 A 2.936 2.936 0 0 0 337.713 28.551 A 2.693 2.693 0 0 0 337.451 28.125 A 1.855 1.855 0 0 0 336.328 27.393 Q 335.645 27.246 335.059 28.125 A 7.217 7.217 0 0 0 334.897 28.351 Q 334.665 28.687 334.282 29.292 A 76.997 76.997 0 0 0 334.033 29.688 Q 333.301 30.859 332.568 32.08 A 101.983 101.983 0 0 0 332.053 32.948 Q 331.853 33.289 331.677 33.597 A 51.435 51.435 0 0 0 331.348 34.18 A 10.701 10.701 0 0 0 331.276 34.311 Q 330.907 34.997 331.121 34.883 A 0.389 0.389 0 0 0 331.152 34.863 Z M 374.609 34.863 L 381.055 30.664 Q 381.543 30.274 381.445 29.492 A 2.936 2.936 0 0 0 381.17 28.551 A 2.693 2.693 0 0 0 380.908 28.125 A 1.855 1.855 0 0 0 379.785 27.393 Q 379.102 27.246 378.516 28.125 A 7.217 7.217 0 0 0 378.354 28.351 Q 378.122 28.687 377.739 29.292 A 76.997 76.997 0 0 0 377.49 29.688 Q 376.758 30.859 376.025 32.08 A 101.983 101.983 0 0 0 375.51 32.948 Q 375.31 33.289 375.134 33.597 A 51.435 51.435 0 0 0 374.805 34.18 A 10.701 10.701 0 0 0 374.733 34.311 Q 374.364 34.997 374.578 34.883 A 0.389 0.389 0 0 0 374.609 34.863 Z" vector-effect="non-scaling-stroke"/></g></svg>